<svg width="21" height="18" viewBox="0 0 21 18" fill="none" xmlns="http://www.w3.org/2000/svg">
<path d="M11.1614 13.9762C11.0817 13.9762 11.0067 13.9313 10.9705 13.8626C8.62065 9.31574 4.84454 7.25177 4.80586 7.23047C4.7285 7.19023 4.68498 7.10503 4.69707 7.02218C4.70916 6.93697 4.77201 6.86833 4.85662 6.84703C5.43924 6.70501 6.01944 6.63401 6.58029 6.63401C8.09364 6.63401 9.49095 7.14053 10.736 8.14174C11.3959 6.96538 14.2486 2.43981 20.2343 0.0160695C20.331 -0.0241683 20.4446 0.0137026 20.4978 0.101279C20.551 0.188855 20.5316 0.304835 20.4494 0.368742C16.7749 3.31794 13.6563 9.12638 11.35 13.8602C11.3137 13.9313 11.2412 13.9786 11.1614 13.9786C11.1639 13.9762 11.1639 13.9762 11.1614 13.9762Z" fill="#3BBCA7"/>
<path d="M15.7572 18H1.30545C0.843705 18 0.468994 17.6331 0.468994 17.181V3.03154C0.468994 2.57946 0.843705 2.21259 1.30545 2.21259H11.3815V3.84813H2.13948V16.3621H14.9208V10.1063H16.5912V17.181C16.5937 17.6331 16.2189 18 15.7572 18Z" fill="#3BBCA7"/>
</svg>
